<?xml version="1.0" encoding="utf-8"?>
<!-- Generator: Adobe Illustrator 19.0.0, SVG Export Plug-In . SVG Version: 6.00 Build 0)  -->
<svg version="1.1" id="Layer_1" xmlns="http://www.w3.org/2000/svg" xmlns:xlink="http://www.w3.org/1999/xlink" x="0px" y="0px"
	 viewBox="-329 131 300 300" style="enable-background:new -329 131 300 300;" xml:space="preserve">
<style type="text/css">
	.st0{fill:#F9AD51;}
</style>
<g>
	<path class="st0" d="M-231.3,332.1h-40.6V280c0-14,11.3-26.6,28.1-31.6c2.7-0.8,3.3-4.4,1-6.1l0,0c-6.5-4.3-10.2-11.7-10.2-20
		c0-13.4,10.9-24.3,24.3-24.3c13.4,0,24.2,10.9,24.2,24.3c0,8-4,15.5-10.8,20.1l0,0c-2.4,1.6-1.8,5.3,1,6.1c1.4,0.4,2.8,0.9,4.2,1.5
		c2.6-7.4,7.7-13.6,14.2-17.7c1-3.2,1.5-6.6,1.5-10c0-18.9-15.3-34.3-34.2-34.3c-18.9,0-34.3,15.4-34.3,34.3
		c0,7.7,2.3,14.8,6.4,20.5c-15.5,7.8-25.3,21.9-25.3,37.2v52.1c0,5.5,4.5,10,10,10h40.6V332.1z"/>
</g>
<g>
	<path class="st0" d="M-99.6,242.9c4.5-5.9,7-13.1,7-20.6c0-18.9-15.3-34.3-34.2-34.3c-18.9,0-34.3,15.4-34.3,34.3
		c0,3.5,0.5,6.9,1.4,10.1c6.4,4.1,11.3,10.2,13.9,17.4c1.3-0.5,2.6-0.9,3.9-1.3c2.7-0.8,3.3-4.4,1-6.1l0,0
		c-6.5-4.4-10.2-11.7-10.2-20.1c0-13.4,10.9-24.3,24.3-24.3c13.4,0,24.2,10.9,24.2,24.3c0,8-4,15.5-10.8,20.1l0,0
		c-2.4,1.6-1.8,5.3,1,6.1C-96,253.3-85,266-85,280.1v52h-0.1h-41.3v10h41.3h0.1c5.5,0,10-4.5,10-10v-52
		C-75,264.7-84.5,250.7-99.6,242.9z"/>
</g>
<path class="st0" d="M-178,237.1c13.4,0,24.2,10.9,24.2,24.3c0,8-4,15.4-10.9,20.1l0,0c-2.4,1.6-1.8,5.3,1,6.1
	c16.3,4.8,27.3,17.5,27.3,31.6v52.1h-85v-52.1c0-13.9,11.4-26.6,28.3-31.6h0c2.7-0.8,3.3-4.4,1-6.1l0,0
	c-6.4-4.3-10.1-11.7-10.1-20.1C-202.2,248-191.3,237.1-178,237.1 M-178,227.1c-18.9,0-34.2,15.4-34.2,34.3c0,7.7,2.2,14.8,6.3,20.5
	c-15.6,7.9-25.5,21.9-25.5,37.2v52.1c0,5.5,4.5,10,10,10h85c5.5,0,10-4.5,10-10v-52.1c0-15.4-9.5-29.3-24.4-37.1
	c4.5-5.9,7-13.1,7-20.6C-143.7,242.5-159.1,227.1-178,227.1L-178,227.1z"/>
</svg>
