<?xml version="1.0" encoding="utf-8"?>
<!-- Generator: Adobe Illustrator 19.0.0, SVG Export Plug-In . SVG Version: 6.00 Build 0)  -->
<svg version="1.1" id="Layer_1" xmlns="http://www.w3.org/2000/svg" xmlns:xlink="http://www.w3.org/1999/xlink" x="0px" y="0px"
	 viewBox="-379 181 200 200" style="enable-background:new -379 181 200 200;" xml:space="preserve">
<style type="text/css">
	.st0{fill:#F9AD51;}
</style>
<g>
	<path class="st0" d="M-283.2,380.9c0.5,0,1.1,0,1.6,0.1C-282.1,381-282.7,380.9-283.2,380.9z"/>
	<path class="st0" d="M-301.5,378.5c4,0.9,8.1,1.6,12.3,2C-293.4,380.1-297.5,379.4-301.5,378.5z"/>
	<path class="st0" d="M-289.1,380.5c1.7,0.2,3.3,0.3,5,0.4C-285.8,380.8-287.5,380.7-289.1,380.5z"/>
	<path class="st0" d="M-305.8,377.4c0.6,0.2,1.2,0.3,1.9,0.5C-304.6,377.7-305.2,377.5-305.8,377.4z"/>
	<path class="st0" d="M-303.8,377.9c0.7,0.2,1.5,0.4,2.2,0.5C-302.3,378.3-303,378.1-303.8,377.9z"/>
	<path class="st0" d="M-307.9,376.8c0.5,0.2,1,0.3,1.5,0.4C-306.8,377.1-307.4,376.9-307.9,376.8z"/>
	<path class="st0" d="M-242.4,285.8c-9.3,0-16.6,6.9-16.6,15.3c0,6.8,4.2,12.4,9.8,12.4c2,0,3.9-1.1,3.9-3.6c0-3.6-4.2-4.2-3.9-9.7
		c0-3.7,3-6.2,6.4-6.2c6.6,0,9.4,7,9.4,13.6c-0.2,10.3-7.4,16.9-16.3,16.9c-11.6,0-19.1-11.1-19.1-23c0-17.7,11.7-24.7,17.8-26.3
		c0,0,3.7,0.9,5.9,0.6c4.1,0,9.4-0.8,9.4-4.7c0-3.4-4.7-4.2-8.1-4.2c-3,0-6.6,0.6-6.9,1.2c-2.2-1.2-3.5-3.1-4.4-5.3
		c11.3-8.7,19.4-16.9,19.4-26.3c0-5-3.3-9.5-9.7-9.5c-11.3,0-19.9,14.5-19.9,27.4c0,2.2,0,4.5,0.6,6.4c-7.2,5.2-12.1,8.2-21.8,14.1
		c0-2.5,0.3-5.6,0.8-8.4c3.4-3.5,7.8-8.8,7.8-12.9c0-2-1.1-3.7-3.3-3.7c-5.6,0-9.8,8.3-10.9,14.1c-2.5,3.1-7.4,7-11.6,7
		c-3.4,0-4.5-3.1-4.8-4.2c10.5-3.6,23.6-18,23.6-31c0-2.7-1.1-8.9-9.4-8.9c-12.5,0-23,18.6-23,33c-4.5,0-6.2-4.7-6.2-8.3
		c0-3.6,1.4-7.3,1.4-8.3c0-1.2-0.5-2.5-2.2-2.5c-4.2,0-6.7,5.5-6.7,11.9c0.3,8.7,6.1,14.3,13.9,14.9c1,5.3,5.8,10.3,11.6,10.3
		c3.6,0,8.1-1.1,11.1-3.9c-0.2,2-0.5,3.7-0.8,5.3c-12.2,6.4-21,10.8-29.1,18c-6.3,5.9-9.9,13.6-9.9,19.7c0,8.3,5.3,16.1,16.1,16.1
		c12.7,0,22.4-10.3,27.1-24.4c2.3-6.7,3.1-16.4,3.6-25.2c12.7-7.2,18.8-11.4,25.5-16.1c0.8,1.5,1.6,2.5,2.8,3.4
		c-5.9,3-19.7,11.5-19.7,31.8c0,14.4,9.7,30.5,28.8,30.5c15.8,0,26.6-13.1,26.6-25.5C-223.4,296.3-229.7,285.7-242.4,285.8z
		 M-245.8,234.7c1.7,0,2,1.7,2,3.1c0,3.8-4.5,10-12.8,17.2C-256.6,243.6-249.9,234.7-245.8,234.7z M-294.8,234.7
		c1.1,0,1.9,0.6,1.9,1.9c0,6.2-6.9,17.5-16,22.5C-308.9,250-300.6,234.7-294.8,234.7z M-318.1,324.5c-4.1,0-6.3-2.8-6.3-7.2
		c0-11.9,15.8-22.7,28.3-28.8C-298.4,305.1-305.9,324.4-318.1,324.5z"/>
	<path class="st0" d="M-179,281c0-55.2-44.8-100-100-100C-223.9,181-179,225.8-179,281z"/>
	<path class="st0" d="M-179,281c0,0.9,0,1.7,0,2.6C-179,282.7-179,281.9-179,281z"/>
	<path class="st0" d="M-379,281c0,0.9,0,1.7,0,2.6C-379,282.7-379,281.9-379,281z"/>
	<path class="st0" d="M-279,181c-55.2,0-100,44.8-100,100C-379,225.8-334.1,181-279,181z"/>
	<path class="st0" d="M-183.8,281c0-52.4-42.6-95.3-95.3-95.3c-52.7,0-95.3,42.6-95.3,95.3c0,52.7,42.6,95.3,95.3,95.3
		C-226.4,376.3-183.8,333.6-183.8,281z M-279.1,369.9c-14.7,0-25.2-3.1-28.3-4.4l0.3-0.9c1.4,0.6,10.2,3.4,21.3,3.4
		c12.1,0,19.4-4.9,19.4-11.1c0-3.8-3.1-6.9-7-6.9c-7.5,0-8,9.4-24.1,9.4c-7,0-13.1-1.3-20.3-3.5c-34.3-10.5-50.7-43-50.7-75.1
		c0-14.7,3.6-24.9,4.5-28.3l0.8,0.3c-0.5,1.7-3.3,10.2-3.3,21.3c0,12.2,5,19.5,11.3,19.5c3.6,0,6.6-2.8,6.6-6.7
		c0-7.4-9.1-8.2-9.1-24.3c0-7,1.5-13.1,3.7-20.3c10.5-34.3,42.9-50.7,74.8-50.7c14.6,0,25.2,3.6,28.2,4.8l-0.3,0.8
		c-1.6-0.7-10.2-3.5-21.3-3.5c-11.8,0-19.3,5-19.3,11.3c0,3.6,2.8,6.6,6.9,6.6c7.5,0,8-9.1,24.1-9.1c7,0,13.1,1.5,20.3,3.7
		c34.6,10.5,50.7,43.2,50.7,74.8c0,14.9-3.2,25.2-4.4,28.4l-0.9-0.3c0.6-2,3.4-10.5,3.4-21.3c0-12.2-5-19.7-11.4-19.7
		c-3.8,0-6.6,2.7-6.6,6.9c0,7.4,9.1,8,9.1,24.3c0,6.6-1.4,13-3.6,19.9C-214.5,353.8-247.2,369.9-279.1,369.9z"/>
	<path class="st0" d="M-256.5,378.4c0.7-0.2,1.5-0.4,2.2-0.5C-255,378.1-255.7,378.3-256.5,378.4z"/>
	<path class="st0" d="M-309.9,376.1c0.4,0.1,0.8,0.3,1.2,0.4C-309.1,376.4-309.5,376.3-309.9,376.1z"/>
	<path class="st0" d="M-268.8,380.5c4.2-0.4,8.3-1.1,12.3-2C-260.5,379.4-264.6,380.1-268.8,380.5z"/>
	<path class="st0" d="M-251.7,377.2c0.5-0.1,1-0.3,1.5-0.4C-250.7,376.9-251.2,377.1-251.7,377.2z"/>
	<path class="st0" d="M-273.9,380.9c1.7-0.1,3.3-0.2,5-0.4C-270.5,380.7-272.2,380.8-273.9,380.9z"/>
	<path class="st0" d="M-276.4,381c0.5,0,1.1,0,1.6-0.1C-275.3,380.9-275.9,381-276.4,381z"/>
	<path class="st0" d="M-254,377.9c0.6-0.2,1.2-0.3,1.9-0.5C-252.8,377.5-253.4,377.7-254,377.9z"/>
	<path class="st0" d="M-244.6,374.9c0.1,0,0.2-0.1,0.4-0.1C-244.4,374.8-244.5,374.9-244.6,374.9z"/>
	<path class="st0" d="M-313.7,374.8c0.1,0,0.2,0.1,0.4,0.1C-313.5,374.9-313.6,374.8-313.7,374.8z"/>
	<path class="st0" d="M-249.3,376.5c0.4-0.1,0.8-0.2,1.1-0.4C-248.5,376.3-248.9,376.4-249.3,376.5z"/>
	<path class="st0" d="M-246.9,375.8c0.3-0.1,0.5-0.2,0.8-0.3C-246.4,375.6-246.7,375.7-246.9,375.8z"/>
	<path class="st0" d="M-311.8,375.5c0.3,0.1,0.5,0.2,0.8,0.3C-311.3,375.7-311.6,375.6-311.8,375.5z"/>
</g>
</svg>
