<?xml version="1.0" encoding="utf-8"?>
<!-- Generator: Adobe Illustrator 19.0.0, SVG Export Plug-In . SVG Version: 6.00 Build 0)  -->
<svg version="1.1" id="Index" xmlns="http://www.w3.org/2000/svg" xmlns:xlink="http://www.w3.org/1999/xlink" x="0px" y="0px"
	 viewBox="87 -286.9 200 200" style="enable-background:new 87 -286.9 200 200;" xml:space="preserve">
<style type="text/css">
	.st0{fill:#F9AD51;}
</style>
<path class="st0" d="M247.5-217.5h-15.9l-22.3,61.2h15.9L247.5-217.5L247.5-217.5z M187-86.9c-1,0-2,0-3-0.1l20.4-56.2h28.1
	c4.9,0,10.4-3.8,12-8.4l22.2-60.9c3.6-10-2.1-18.1-12.7-18.1h-39l-32.7,90h0l-18.6,51c-44-10.5-76.8-50-76.8-97.3
	c0-45.9,30.9-84.5,73-96.3l-19.2,52.6h0L109-143.1h21.2l27.1-74.3h15.9l-27.1,74.3l21.2,0l25.2-69.3c3.6-10-2.1-18.1-12.7-18.1H162
	l20.5-56.2c1.5-0.1,3-0.1,4.5-0.1c55.2,0,100,44.8,100,100C287-131.7,242.2-86.9,187-86.9z"/>
</svg>
