<?xml version="1.0" encoding="utf-8"?>
<!-- Generator: Adobe Illustrator 19.0.0, SVG Export Plug-In . SVG Version: 6.00 Build 0)  -->
<svg version="1.1" id="Layer_1" xmlns="http://www.w3.org/2000/svg" xmlns:xlink="http://www.w3.org/1999/xlink" x="0px" y="0px"
	 viewBox="0 0 626 200" style="enable-background:new 0 0 626 200;" xml:space="preserve">
<style type="text/css">
	.st0{fill:#F9AD51;}
	.st1{fill-rule:evenodd;clip-rule:evenodd;fill:#F9AD51;}
</style>
<g>
	<path class="st0" d="M560.1,125.7c0,0.3,0,0.7,0,1c0,0,0,0,0-0.1C560.1,126.4,560.1,126.1,560.1,125.7"/>
	<g>
		<path class="st0" d="M555.2,67.9c0-7.8-4.7-13-11.7-13h-79.8v26h79.8C551.1,80.9,555.2,76.3,555.2,67.9z"/>
		<path class="st0" d="M547.6,112.9h-83.9v28.3h83.9c8,0,12.5-5.2,12.5-14.5C560.1,118.3,555.2,112.9,547.6,112.9z"/>
		<path class="st0" d="M617.4,0H8.5C3.8,0,0,5.1,0,11.4v177.1c0,6.3,3.8,11.4,8.5,11.4h608.9c4.7,0,8.5-5.2,8.5-11.4V11.4
			C626,5.1,622.1,0,617.4,0z M19.8,18.6h61.9v62.7H19.8V18.6z M169.6,132.6c0,13.6-4.7,26-11.9,33.3c-10.2,10.4-25.4,12.8-47.7,12.8
			H78.3c-44.4,0-58.5-11-58.5-49.1v-20.8h42.6c0,1.9-0.2,3.9-0.2,5.6c0,19,4.5,25.1,22.3,25.1H105c16.4,0,19.2-6.5,19.2-22.3V19.6
			h45.4V132.6z M374.1,168.3c-11.3,8.9-29.1,10.6-55.1,10.6h-50.8c-23.5,0-40.1-1.1-53-11.7c-12.5-10.4-17.2-24.7-17.2-46.1V78.3
			c0-47.2,19.4-60.6,70.2-60.6H319c26,0,43.6,1.3,54.4,10.2c9.6,7.8,13.7,20.8,13.7,39.6c0,2.8,0,5.8-0.2,8.9h-45.6v-1.5
			c0-12.5-7.6-17.7-24-17.7h-36.4c-29.5,0-36.6,4.1-36.6,30.9v21.9c0,24.7,10,29.6,36.6,29.6h26.4c25.2,0,35.2-2.8,35.2-21.6v-1.7
			h46.1c0.2,4.1,0.4,7.8,0.4,11.5C389,147.1,384.7,160.1,374.1,168.3z M559.3,176.9h-141V19.6h134.1c33.4,0,49.5,14.3,49.5,43.9
			c0,16.9-7,27.3-21.9,33.3c18.8,3.2,27,14.9,27,37.4C607,164.6,592.2,176.9,559.3,176.9z"/>
	</g>
	<path class="st1" d="M65,50.4c0,0,1,0,1.3-0.1c0.3,0,0.8,0,1.2,0.6c0.1,0.2,0.6,1.8,0.7,2c0.1,0.2,0.2,1.1-0.5,1.3
		c-0.1,0-1.3,0.3-1.3,0.3L65,50.4z M62.7,42.7c0,0,1.3,0.1,1.6,0.1c0.3,0,0.6,0.2,0.7,0.5c0.1,0.2,0.6,1.7,0.6,1.9
		c0.1,0.2,0.3,1.1-0.4,1.1c-0.1,0-1.4,0-1.4,0L62.7,42.7z M58.1,38.3c0,0,5.5,0.8,6.1,0.9c2.3,0.4,3.3,2.4,3.6,3.3
		c0.1,0.3,0.7,2.4,0.8,2.7c0.6,1.8-1,2.7-1,2.7s1.8,0.4,2.4,1.9c0,0,1.2,3.6,1.3,3.9c0.1,0.4,0.9,3.2-1.9,4.3
		c-0.4,0.1-4.9,1.4-4.9,1.4L58.1,38.3z"/>
	<path class="st0" d="M35.7,34.8l9.1,1.4l1.5,5.2l-2.1-0.2c0,0,5.2,17.7,5.4,18.2c0.7,2,1.1,4.1-1.8,5c-0.4,0.1-3,0.9-3.4,1
		c-1.6,0.4-3.7,0.4-4.6-2.3l-3.3-10.9l4.1-0.3c0,0,1.7,5.6,1.8,6c0.4,1.2,0.6,1.6,1.8,1.3c0.9-0.2,0.8-0.6,0.6-1.3
		c-0.1-0.3-5-17.1-5-17.1l-2.3-0.2L35.7,34.8z"/>
	<path class="st0" d="M35.7,34.8l9.1,1.4l1.5,5.2l-2.1-0.2c0,0,5.2,17.7,5.4,18.2c0.7,2,1.1,4.1-1.8,5c-0.4,0.1-3,0.9-3.4,1
		c-1.6,0.4-3.7,0.4-4.6-2.3l-3.3-10.9l4.1-0.3c0,0,1.7,5.6,1.8,6c0.4,1.2,0.6,1.6,1.8,1.3c0.9-0.2,0.8-0.6,0.6-1.3
		c-0.1-0.3-5-17.1-5-17.1l-2.3-0.2L35.7,34.8z"/>
	<path class="st0" d="M49.2,36.9c0.4,0.1,3.3,0.6,3.8,0.6c0.5,0.1,3.2,0.6,3.9,3.2c0.2,0.7,1.6,5.3,1.6,5.3l-3.4,0
		c0,0-0.6-2.3-0.8-2.6C54,42.4,54,42.1,52.9,42c-1-0.1-1,0.3-0.8,1.1c0.1,0.4,3.3,11.4,3.4,11.8c0.4,1.2,0.5,1.7,1.6,1.5
		c1-0.2,0.8-0.8,0.5-1.7c-0.1-0.3-1.1-3.6-1.1-3.6l3.4-0.3c0,0,1.7,5.8,1.8,6.1c0.1,0.3,0.8,2.6-1.3,3.6c-0.3,0.1-0.3,0.2-0.5,0.2
		c-0.3,0.1-3,0.9-3.3,1c-0.3,0.1-2.9,0.9-3.8-1.8c-0.1-0.3-5.7-19.6-6-20.5C46.5,37.9,47.1,36.5,49.2,36.9"/>
	<path class="st0" d="M49.2,36.9c0.4,0.1,3.3,0.6,3.8,0.6c0.5,0.1,3.2,0.6,3.9,3.2c0.2,0.7,1.6,5.3,1.6,5.3l-3.4,0
		c0,0-0.6-2.3-0.8-2.6C54,42.4,54,42.1,52.9,42c-1-0.1-1,0.3-0.8,1.1c0.1,0.4,3.3,11.4,3.4,11.8c0.4,1.2,0.5,1.7,1.6,1.5
		c1-0.2,0.8-0.8,0.5-1.7c-0.1-0.3-1.1-3.6-1.1-3.6l3.4-0.3c0,0,1.7,5.8,1.8,6.1c0.1,0.3,0.8,2.6-1.3,3.6c-0.3,0.1-0.3,0.2-0.5,0.2
		c-0.3,0.1-3,0.9-3.3,1c-0.3,0.1-2.9,0.9-3.8-1.8c-0.1-0.3-5.7-19.6-6-20.5C46.5,37.9,47.1,36.5,49.2,36.9z"/>
	<path class="st1" d="M32,31.7c1.7,0.3,31.3,5.4,32.6,5.6c1.3,0.2,3.5,0.6,4.5,3.5c0.2,0.6,4.2,13.3,4.4,13.8c0.2,0.6,1.3,3.4-2,4.5
		c-0.5,0.2-28.3,9.3-29,9.6c-0.7,0.2-3.3,1.4-4.4-2.6c0,0-8.5-28.5-8.9-29.7c-0.3-1-0.5-1.9-0.6-2.5c-0.2-2.3,1.2-2.4,2.3-2.2
		C31.3,31.6,31.7,31.7,32,31.7 M31.2,30.1c0.7,0.1,33.1,5.8,33.9,5.9c0.8,0.1,4,0.5,5.3,4.3c0.2,0.7,4.3,13.5,4.5,14.2
		c0.7,2.4,0.4,4.8-2.5,5.9c-1,0.3-28.7,9.6-29,9.8c-0.8,0.3-4.8,2.2-6.3-2.8c0,0-9-29.8-9.2-30.7C27.3,35.2,27,34,27,33.2
		C27,29.3,30.5,30.1,31.2,30.1"/>
</g>
</svg>
