<?xml version="1.0" encoding="utf-8"?>
<!-- Generator: Adobe Illustrator 19.0.0, SVG Export Plug-In . SVG Version: 6.00 Build 0)  -->
<svg version="1.1" id="Layer_1" xmlns="http://www.w3.org/2000/svg" xmlns:xlink="http://www.w3.org/1999/xlink" x="0px" y="0px"
	 viewBox="154.9 131 300 300" style="enable-background:new 154.9 131 300 300;" xml:space="preserve">
<style type="text/css">
	.st0{fill:#F9AD51;}
</style>
<g>
	<path class="st0" d="M200.2,313.6h-23.5l-5.3-18.8l5.9-1.8l2.4,8.2c5.7,4.7,11.8,6.5,20.5,6.5c4.1-1.7,7.1-5.9,7.1-10.6
		c0-5.9-5.9-8.8-13.5-11.8c-9.1-3.6-19.9-7.1-19.9-17.6c0-10,10-15.9,18.8-18.8h18.8l4.7-1.7v18.2h-5.9v-5.9
		c-4.7-3.5-9.4-4.7-17.6-4.7c-3.5,1.4-6.5,4.7-6.5,8.8c0,5.3,5.3,7.1,13.5,10c9.9,3.5,20,7.6,20,19.4
		C219.6,303,209.6,310.6,200.2,313.6"/>
	<path class="st0" d="M280.3,313.3c-3.5,1.2-8.8,1.7-12.9,1.7c-20.6,0-40-10.6-40-32.3c0-20.6,19.4-30.6,29.9-34.1h24.1l4.7-1.8
		v21.7h-5.9l-1.7-8.8c-4.7-2.9-10-4.1-15.3-4.1c-9.4,0-21.7,5.9-21.7,24.7s14.7,27,31.1,27l11.8-11.8l3.5,1.8
		C288,301.6,283.3,310.4,280.3,313.3"/>
	<path class="st0" d="M323.9,261.4l-9.4,25.2h18.8L323.9,261.4z M332.1,313.6v-5.9h6.5l1.8-1.8l-4.7-12.9h-23.5l-4.7,12.9l1.8,1.8
		h6.5v5.9h-24.1v-5.9h4.1l3.5-1.2l21.2-54.6V249h12.3l22.3,57.6l3.5,1.2h4.1v5.9H332.1z"/>
	<path class="st0" d="M395,254.9H392V303c2.9,2.4,7.6,3.5,12.9,3.5c10,0,18.8-10.6,18.8-25.2C423.8,261.9,407.9,254.9,395,254.9
		 M412,313.6h-42.3v-5.9h4.1l4.7-1.2v-50.5l-1.2-1.2h-7.6V249h29.4c19.4,0,39.3,9.4,39.3,29.4C438.4,296,423.8,307.7,412,313.6"/>
</g>
</svg>
