<?xml version="1.0" encoding="utf-8"?>
<!-- Generator: Adobe Illustrator 19.0.0, SVG Export Plug-In . SVG Version: 6.00 Build 0)  -->
<svg version="1.1" id="Layer_1" xmlns="http://www.w3.org/2000/svg" xmlns:xlink="http://www.w3.org/1999/xlink" x="0px" y="0px"
	 viewBox="-293 93.8 200 200" style="enable-background:new -293 93.8 200 200;" xml:space="preserve">
<style type="text/css">
	.st0{fill:#FAAD51;}
</style>
<path class="st0" d="M-193.4,293.8c-55.1-0.1-96.6-43.9-99.5-93.5c-3.5-61.2,45.5-105.8,97.9-106.5C-137.8,93-93.7,138.7-93,192.4
	C-92.3,248.9-138.3,294.4-193.4,293.8z M-193.7,290.6c27.2-0.4,50.3-9.8,69.1-28.6c18.8-18.9,28.3-42,28.1-68.5
	c-0.2-26.8-9.9-50-29.2-68.8c-19.8-19.1-43.7-28.2-71.4-27.2c-26,1-47.9,11.1-65.8,29.7c-18.1,18.7-27,41.5-26.9,67.4
	c0.2,26.3,9.8,49.2,28.5,67.8C-242.5,281-219.5,290.1-193.7,290.6z"/>
<path class="st0" d="M-124.1,192.9c-0.2,9.1-1.8,17.9-5.4,26.3c-5,11.7-12.5,21.4-22.9,29c-6,4.4-12.4,7.7-19.5,9.9
	c-5.1,1.7-10.5,2.9-16,3.1c-6.6,0.3-13.2,0.3-19.7-1.1c-13.3-2.8-24.9-9-34.7-18.5c-6.5-6.4-11.6-13.8-15.1-22.2
	c-3.5-8.4-5.3-17.3-5.2-26.5c0.1-8.1,1.5-15.9,4.3-23.5c5.8-15.4,16.1-27,30.3-35.4c5.3-3.1,10.9-5.2,16.8-6.8
	c7.5-2,15.1-2.4,22.8-1.9c8.7,0.5,17,2.8,24.9,6.6c9.7,4.6,17.9,11.1,24.4,19.5c6,7.7,10.5,16.3,12.5,26c0.5,2.6,1.1,5.2,1.5,7.9
	C-124.5,187.8-124.4,190.4-124.1,192.9z M-134.2,222.8c0.4-0.9,0.9-1.6,1.3-2.4c3.6-7.7,5.5-15.9,5.9-24.5
	c0.3-7.3-0.5-14.6-2.7-21.6c-2.3-7.1-5.5-13.7-9.9-19.7c-4.9-6.7-10.9-12.2-17.9-16.7c-6.5-4.1-13.6-7-21.2-8.7
	c-4.9-1.1-9.9-1.8-14.9-1.7c-4.1,0.1-8.1,0.7-12.2,1.3c-9.2,1.4-17.6,5.1-25.3,10.3c-9.5,6.5-16.8,15-22,25.3
	c-4.6,9.2-6.8,19.1-6.8,29.3c0,8.5,1.8,16.8,5.2,24.6c0.6,1.4,1.4,2.8,2.1,4.2C-213.1,222.8-173.7,222.8-134.2,222.8z M-250.7,226
	c11.7,21.2,37.5,35.3,64.2,32.5c24.1-2.6,43.2-18.2,50.1-32.5C-174.4,226-212.4,226-250.7,226z"/>
<path class="st0" d="M-119.7,165.8c-0.1-0.5-0.1-1.1-0.2-1.6c-0.1-0.5-0.2-1-0.3-1.7c1,0,1.9,0,2.9,0c-0.8-1-1.3-1.8-2-2.6
	c1.2-1.2,2-0.6,3-0.1c2.5,1.4,4.9,2.7,7.7,4.1c0.2-1,0.3-1.7,0.5-2.5c-1.4-1-2.8-1.9-4.2-2.8c0.3-1.6,0.3-1.6,2.7-1.7
	c-0.4,0.5-0.6,0.8-1.1,1.3c0.3,0.3,0.6,0.8,1,1.1c2.2,1.3,3.8,3.3,5.8,4.8c0.8,0.6,1.2,1.2,0.8,2.4c-4.1,0.6-7.1-2.1-10.6-3.6
	c-0.1,0.4-0.1,0.9-0.2,1.4c-1.4,0-2.9,0-4.6,0c-0.2,0.9-0.3,1.6-0.5,2.5c-0.4,0.3-0.8,0.7-1.2,1.1c-0.1,1.3-0.2,2.6-0.3,4.1
	c-0.6-0.3-1-0.4-1.3-0.6c0-1,0-1.9,0-2.9c-1.7,0-3.3,0.1-4.8-0.1c-0.4-0.1-0.8-0.7-1.1-1c-0.3-3.5,0.3-6,2.1-8.6
	c2.6,1.7,4.2,4.2,5.2,7.1C-120.2,165.9-120,165.9-119.7,165.8z M-126.5,166.3c2.2,1.7,2.7,1.7,4.4,0.4c-1.2-1.5-1.8-3.5-4.2-4.4
	C-126.4,163.7-126.4,165-126.5,166.3z M-105.4,164.7c0.1-0.2,0.2-0.3,0.3-0.4c-0.4-0.2-0.7-0.4-1.1-0.6c-0.1,0.1-0.2,0.3-0.3,0.4
	C-106,164.3-105.7,164.5-105.4,164.7z"/>
<path class="st0" d="M-134.1,242.5c4.1,0.2,5.4,1.7,4.6,5.2c2,0.4,4.1,0.7,6.4,1.1c-0.7,0.9-1.2,1.5-1.6,2c-2.4-0.1-4.7-0.3-6.9-0.3
	c-0.4,0-0.9,0.5-1.6,1c1.3,1.3,2.5,2.4,3.8,3.7c-0.4,0.5-0.9,1.1-1.5,1.8c-3.2-2.8-6.2-5.5-9.4-8.3
	C-138.3,246.3-136.1,244.3-134.1,242.5z M-137,248.1c1,0.9,1.8,1.5,2.6,2.1c2.9-2.5,2.9-2.5,2.5-4.6
	C-134.5,244.2-135.1,246.8-137,248.1z"/>
<path class="st0" d="M-221.3,268.6c-1.1,2.8-2,5.2-2.9,7.7c-0.9-0.4-1.5-0.6-2.1-0.9c1.4-3.9,2.8-7.6,4.2-11.5
	c0.9,0.3,1.6,0.5,2.3,0.7c0.7,3.2,1.4,6.1,2.1,9.1c0.1,0.1,0.3,0.1,0.4,0.1c0.9-2.5,1.8-4.9,2.7-7.4c0.7,0.2,1.3,0.3,2.2,0.6
	c-1.4,4-2.8,7.9-4.2,11.9c-0.9-0.3-1.6-0.5-2.4-0.7C-219.8,275-220.5,272-221.3,268.6z"/>
<path class="st0" d="M-173.6,272.3c0.6,2.4,1.2,4.7,1.8,7.2c-0.8,0.2-1.4,0.3-2.2,0.4c-1.1-4-2.3-7.9-3.4-11.9
	c0.9-0.2,1.6-0.4,2.4-0.6c2.4,2.1,4.8,4.2,7.6,6.7c-0.9-3-1.5-5.4-2.3-8c0.6-0.3,1.2-0.5,2.1-0.8c1.2,4.1,2.4,7.9,3.5,12
	c-0.8,0.3-1.4,0.5-2.4,0.9c-2.3-2-4.4-4-6.7-5.9C-173.3,272.2-173.5,272.2-173.6,272.3z"/>
<path class="st0" d="M-256.8,255.4c-0.6-0.9-1-1.4-1.5-2.1c0.9-2.8,1.8-5.6,2.7-8.3c-0.2-0.1-0.3-0.2-0.4-0.3
	c-1.9,1.5-3.8,3-6.1,4.9c-0.4-0.4-0.8-0.9-1.5-1.6c3.4-2.9,6.5-5.6,9.8-8.3c0.6,0.5,1.1,0.9,1.8,1.5c-1,3-1.9,6-2.9,9
	c0.1,0.1,0.2,0.2,0.3,0.2c2-1.6,3.9-3.2,6.1-4.9c0.5,0.5,1,0.9,1.7,1.4C-250.1,249.7-253.3,252.4-256.8,255.4z"/>
<path class="st0" d="M-225,125.4c0.5,1.5,1,2.9,1.6,4.6c-1.2-0.1-2.3-0.2-3.4-0.3c-0.3,0.8-0.5,1.6-0.9,2.6
	c-0.6-0.1-1.2-0.1-1.8-0.1c0-0.4-0.1-0.7,0-0.9c0.4-0.6,0.9-1.1,1.3-1.7c1.1-1.3,1.4-2.8,0.6-4.4c-1.2,0.5-1.4,2.5-3.2,1.5
	c-0.1-1.7-0.3-3.4-0.4-5.2c-0.9-0.5-1.7-1-2.6-1.4c0.9-1,1.6-1.8,2.3-2.6c0-2.9,0-5.6,0-8.3c0.9,0.6,0.9,0.6,1.7,4.3
	c0.8-1.2,1.4-2.4,2.3-3.7c1.2,2.9,0.4,5.1-1.3,7.2c1.1,1,2.1,2,3.1,2.9C-226.6,122.1-227.1,124-225,125.4
	C-225,125.4-225,125.4-225,125.4z M-229.4,124c1-1.7,0.6-3.3-0.4-5.2C-230.9,120.9-230,122.4-229.4,124z"/>
<path class="st0" d="M-247.5,263.2c-1.7-1.3-3.6-2.8-5.7-4.5c2.9-3.3,5.6-6.4,8.3-9.5c5,3.5,5.3,3.8,6.3,6.6
	C-239.3,260.7-242.4,263.4-247.5,263.2z M-244.1,252c-2.1,2.4-3.8,4.5-5.7,6.6c1,0.8,1.7,1.4,2.5,2c0.9,0.6,1.9,0.7,2.7,0
	c1.6-1.4,3.4-2.6,3.6-5.5C-241.9,254.3-242.9,253.3-244.1,252z"/>
<path class="st0" d="M-199.1,272.2c-0.7,0.2-1.3,0.4-1.9,0.6c-1.2-2-2.8-3.4-5.3-2.5c-2,0.8-2.7,2.9-2.1,6.6c1.3,2,3.2,2.5,5.7,1.5
	c0.2-0.4,0.4-0.9,0.7-1.6c-1.1-0.3-2-0.5-3.1-0.8c0.2-0.6,0.3-1.1,0.5-1.7c1.7,0.1,3.4,0.2,5.4,0.4c-0.3,1.9-0.5,3.5-0.8,5
	c-4.3,3-9.5,0.6-10.7-1.9c-1.6-3.5,0.1-8.2,3.4-9.5C-204,267.1-200.3,268.7-199.1,272.2z"/>
<path class="st0" d="M-226.1,264.7c-1.4,5.3-4,7.6-7.7,7.2c-3.2-0.4-5.5-2.9-5.6-5.8c-0.1-3.4,2.6-6.7,5.9-7.3
	C-230.2,258.2-227.3,260.5-226.1,264.7z M-228.7,264.3c-0.1-1.3-0.8-2.4-2-3c-1.2-0.6-2.7-0.6-3.8,0.5c-0.9,1-1.7,2.2-2.3,3.5
	c-0.5,1.2,0,2.5,1,3.4c1,0.9,2.1,1.3,3.4,0.8C-230.7,268.9-228.7,266.3-228.7,264.3z"/>
<path class="st0" d="M-135.1,258.6c0.5,0.6,0.8,1,1.2,1.6c-2.5,2-5,3.8-7.7,5.9c-2.7-3.3-5.3-6.5-8.1-9.9c2.5-1.9,4.8-3.8,7.3-5.7
	c0.5,0.5,1,0.9,1.6,1.4c-1.8,1.4-3.6,2.8-5.4,4.3c0.5,0.7,1.1,1.4,1.7,2.3c1.8-1.3,3.4-2.5,5.1-3.8c0.4,0.5,0.8,0.9,1.3,1.4
	c-1.7,1.4-3.3,2.6-5,4c0.7,0.9,1.3,1.7,2.1,2.7C-139,261.4-137.2,260.1-135.1,258.6z"/>
<path class="st0" d="M-273.4,230.3c-0.3-0.8-0.6-1.4-0.9-2.2c1.8-0.6,3.4-1.2,5.3-1.9c-0.6-1.6-1.2-3.2-1.8-4.9
	c-1.8,0.6-3.4,1.2-5.1,1.8c-0.3-0.6-0.7-1.3-1.1-2.2c4.1-1.4,8-2.8,12.1-4.3c0.4,0.7,0.7,1.2,1.1,2c-1.6,0.7-3.1,1.3-4.8,2.1
	c0.6,1.5,1.2,3,1.8,4.6c1.6-0.6,3-1.1,4.6-1.6c0.3,0.6,0.7,1.3,1.2,2.2C-265.4,227.5-269.3,228.8-273.4,230.3z"/>
<path class="st0" d="M-275.6,207.7c-0.7,0.6-1.3,1.1-1.7,1.4c-0.3,3-0.3,3,1.7,4.3c1.3-0.1,1.4-1.1,1.6-2c0.3-1.5,0.5-3.1,0.8-4.4
	c3.1-2.8,5.7-2.1,6.8,1.5c0.9,2.8,0.2,4.4-2.7,5.9c-0.2-0.7-0.3-1.3-0.5-1.9c0.5-0.7,0.9-1.3,1.3-2.1c-0.3-0.9-0.5-1.9-0.9-2.9
	c-0.8,0.2-1.2,0.3-1.8,0.5c-0.2,1.6-0.3,3.1-0.6,4.5c-0.5,2.4-1.2,3-3.3,3.2c-2.3,0.2-3.2-0.4-4.2-2.5c-0.8-1.6-0.8-3.3-0.4-5.2
	c0.8-0.7,1.8-1.5,2.9-2.6C-276.1,206.5-275.8,207.1-275.6,207.7z"/>
<path class="st0" d="M-123.6,233.1c-0.2,0.5-0.4,1.1-0.6,1.7c-0.8,0.1-1.4,0.2-2.1,0.2c-1.1,0.9-2,1.8-1.6,3.4
	c1.2,0.7,2-0.1,2.8-0.7c1.3-1,2.7-1.9,3.8-2.7c2.8,0.3,4.1,1.7,4.6,4c-1.3,4.9-3.3,6.4-7.5,5.3c0.2-0.5,0.3-1.1,0.4-1.7
	c1-0.1,1.8-0.2,2.6-0.3c2.3-2.1,2.4-2.8,0.7-4.8c-0.5,0.3-1.2,0.6-1.7,1c-0.6,0.5-1.2,1.1-1.8,1.5c-2.4,1.8-3.8,1.7-6.1-0.6
	c-0.8-2.5,0.4-4.4,2.2-6C-126.5,232.3-125.6,232.3-123.6,233.1z"/>
<path class="st0" d="M-265.5,244.6c-0.5-0.7-0.9-1.3-1.3-2.1c0.5-0.8,1-1.6,1.7-2.7c-0.8-1.3-1.6-2.8-2.4-4.4c-1,0.2-2,0.3-3.1,0.4
	c-0.3-0.6-0.7-1.2-1.3-2.1c4.7-0.7,9-1.4,13.5-2.1c0.5,0.8,0.9,1.4,1.5,2.3C-259.7,237.4-262.6,240.9-265.5,244.6z M-260.6,234.8
	c-0.1-0.2-0.2-0.4-0.3-0.5c-1.4,0.3-2.8,0.5-4.5,0.9c0.8,1.1,1.4,1.9,2,2.8C-262.3,236.8-261.4,235.8-260.6,234.8z"/>
<path class="st0" d="M-188.9,280.1c-1.3-3.1-0.7-6.8-1.7-10.5c1.1-0.2,1.8-0.3,2.6-0.4c0.9,3.5-0.1,7.2,1.8,10.2
	c2.4,0.3,2.4,0.3,4.2-1.1c-0.2-2.9-0.4-6.1-0.6-9.4c0.7-0.2,1.3-0.4,2.1-0.6c0.2,0.4,0.4,0.7,0.5,1c0.3,2.6,0.5,5.1,0.8,7.7
	c0.2,1.9-1.1,3.8-2.9,4.3C-184.5,282.1-186.7,282.3-188.9,280.1z"/>
<path class="st0" d="M-175.9,122.9c4.4,0.1,8.2-1.5,12-3.8c-0.3-0.5-0.6-1.1-1-1.8c0.4-1.5,1.1-2.8,2.9-3.4c-0.4,0.5-0.7,1-1.3,1.8
	c1.8,0,3.2,0,4.7,0c0.5-1,1-1.8,1.8-3.2c0.6,1.5,1,2.6,1.4,3.7c0.7,0.1,1.4,0.3,2.3,0.4c0.1,0.4,0.1,0.8,0.2,1.4c-1.3,0-2.4,0-3.7,0
	c-2.7,2.6-6.3,3.6-10,4.5c-2.8,0.7-5.8,0.9-8.7,1.3c-0.3,0.1-0.5-0.3-0.9-0.5C-176,123.2-176,123.1-175.9,122.9z"/>
<path class="st0" d="M-151.6,267.6c-0.3-2-0.5-4-0.8-6c-0.2-1-0.4-1.9-0.6-3c0.6-0.4,1.3-0.7,2.3-1.3c0.8,4.5,1.6,8.8,2.4,13.1
	c-0.9,0.5-1.6,0.9-2.4,1.4c-3.4-2.9-6.8-5.8-10.3-8.7c0.8-0.5,1.4-0.9,2.2-1.4c1.7,1.4,3.2,2.8,4.8,4.2
	C-153.3,266.4-152.4,266.9-151.6,267.6c0.1,0,0.2,0,0.3,0.1C-151.4,267.6-151.5,267.6-151.6,267.6z"/>
<path class="st0" d="M-119.2,212.3c1.8-0.7,3.5-1.4,5.5-2.1c-1.5-1.3-2.7-2.5-4.1-3.7c0.1-0.7,0.1-1.5,0.2-2.4
	c0.4,0.1,0.7,0,0.9,0.1c1.1,1,2.3,1.9,3.4,3c1.4,1.5,3.1,2.6,5.3,2.7c0.8,0.1,1.6,0.3,2.5,0.5c-0.2,0.7-0.4,1.3-0.7,2.1
	c-1.7-0.3-3.3-0.5-5.3-0.8c-2.2,0.9-4.9,1.9-7.7,3c-0.1-0.5-0.1-0.9-0.1-1.3C-119.4,213.2-119.3,212.8-119.2,212.3z"/>
<path class="st0" d="M-109.1,223.7c-0.3,0.6-0.5,1.2-0.9,1.9c-3.4-1.1-6.6-2.2-10.1-3.3c-0.5,1.2-0.9,2.2-1.4,3.5
	c-0.6-0.3-1.1-0.6-1.8-0.9c1.1-3.1,2.2-6,3.3-9.2c0.8,0.3,1.3,0.4,1.9,0.6c-0.3,1.1-0.6,2.1-1,3.3
	C-116,221.6-112.4,221.7-109.1,223.7z"/>
<path class="st0" d="M-270.7,173.9c-0.9-2.1-1.7-4.1-2.5-6c1.4-0.2,1.4-0.2,3.6,2.9c1.1-3.4,1.1-6.9,1.8-10.3
	c1.9,5.1,1.8,8.9-0.6,13.4C-269.1,173.9-270,173.9-270.7,173.9z"/>
<path class="st0" d="M-112.4,232.2c-0.5,0.9-0.9,1.4-1.3,2.1c-3.9-1.8-7.6-3.6-11.5-5.4c0.3-0.7,0.6-1.3,1-2.2
	C-120.3,228.5-116.5,230.3-112.4,232.2z"/>
<path class="st0" d="M-157.7,274.7c-0.8,0.3-1.4,0.6-2.3,1c-1.6-3.8-3.2-7.5-4.9-11.4c0.8-0.4,1.4-0.6,2.4-1.1
	C-160.9,267.1-159.4,270.7-157.7,274.7z"/>
<path class="st0" d="M-276.2,153.3c1,0.2,2,0.3,3.2,0.4c0.8,2.6,3.2,4.4,3.1,7.4C-272,158.6-274,156.1-276.2,153.3z"/>
<path class="st0" d="M-159.9,125.1c1,1.4,1.9,2.6,0.7,4.2c-1.4,0.4-2.9,0.8-4.4,1.2C-162.4,128.8-161.2,127.1-159.9,125.1z"/>
<path class="st0" d="M-265.1,156c1.3,0.2,2.4,0.4,3.9,0.5c-0.8,1.9-1.4,3.7-2,5.5C-263.9,160.1-264.4,158.2-265.1,156z"/>
<path class="st0" d="M-225,125.4c0.9-1.4,2.3-0.9,3.4-1c1,0.9,0.8,1.5,0.3,2.3c-1.3-0.5-2.5-1-3.8-1.4
	C-225,125.4-225,125.4-225,125.4z"/>
<path class="st0" d="M-234.4,206.7c7.3,5.7,13.5,7.4,23.1,0.5c3.4,1.8,6.4,4.6,10.9,4.1c0.8-6.3,1.5-12.4,2.3-18.8
	c-1.1-0.2-2-0.3-3.3-0.5c1.3-1.9,2.5-3.6,4-5.8c-4.6,0-8.7,0-13.1,0c-1.5,3.3-3.2,6.8-4.8,10.5c-2.8,0-5.5,0-8.5,0
	c1.5-3.5,2.9-6.8,4.6-10.5c-3.6,0-6.9,0-10.2,0c-1.7,3.5-3.4,6.9-5.1,10.6c-2.7,0.1-5.3,0.1-8.3-0.1c1.7-3.5,3.2-6.7,4.8-10.3
	c-3.8-0.5-7.3,0-10.9,0c0-2.7,0-5.4,0-8.2c2.6-0.8,5.1,0.2,7.7,0.1c2.5-0.1,5,0,7.6,0c4-8,8-15.9,12.1-23.9c3.9,4.1,7.6,8,11.6,12.2
	c3.4-5.3,5.7-11,8.5-16.3c2.8-5.4,5.5-11,8.4-16.8c5.6,11.2,11,22.2,16.5,33.3c4.1-4.2,7.8-8.2,11.9-12.5
	c5.2,10.2,10.2,20.1,15.4,30.2c3.8-0.2,7.7-0.3,11.7-0.4c0,2.9,0,5.6,0,8.5c-2.4,0-4.8,0-7.3,0c0.9,2,1.5,3.6,2.3,5.5
	c-3,0.6-5.8,0.3-8.7,0.5c-0.9-2-1.8-4-2.7-6.1c-3.3,0-6.7,0-10.3,0c0.8,1.9,1.6,3.7,2.3,5.5c-1.8,0.7-4.7,0.9-8.4,0.3
	c-0.8-1.8-1.7-3.7-2.6-5.8c-5,0-10,0-15.3,0c0.9,6.4,1.7,12.6,2.6,18.7c3.3,0.5,3.9,0.2,11.3-4c7.5,6.3,15,6,22.2-0.7
	c2.5,1.9,4.8,3.7,8,4c3.2,0.2,6-0.8,8.7-2.8c0.8,1.7,1.4,3.3,2.3,5.1c-2.8,2.2-6,2.9-9.4,3.1c-3.5,0.2-6.7-0.7-9.8-2.5
	c-7.5,3.9-14.9,5.7-22.5,0.3c-2.8,1.8-5.8,3.2-9.2,3.5c-3.4,0.3-6.5-0.8-9.2-2.9c-6.1,5.4-11.9,3-18-0.3c-7.6,4.3-15.3,4-22.9-0.6
	c-6.3,3.4-12.6,3.6-19-0.5c0.6-1.6,1.3-3.2,1.9-4.6C-242.5,211.7-240.6,211.5-234.4,206.7z M-176.8,185.3
	c-5.5-12-10.8-23.5-16.4-35.6c-4.7,9.8-9.5,19.1-13.9,29c3.8,0.2,7,0.9,10.5,0.5c0.5-3.4,1-6.6,1.5-9.8c1.3,0,2.4,0,3.5,0
	c0.5,3.4,1,6.6,1.6,9.9c1.9,0.1,3.5,0.2,5.4,0.2c-1.6,2.2-3.1,4.1-4.7,6.3C-185,185.6-181.1,185.4-176.8,185.3z M-158,184.6
	c-3-6.1-5.7-11.8-8.4-17.4c-2.4,2.2-4.6,4.4-7,6.6c1.8,3.8,3.5,7.7,5.4,11.7C-164.7,185.2-161.7,184.9-158,184.6z M-219.9,167
	c-1.9,3.8-3.7,7.3-5.5,11.2c3.6,0,6.6,0,10,0c0.6-1.4,1.3-3,2-4.5C-215.7,171.4-217.6,169.4-219.9,167z"/>
<path class="st0" d="M-198.1,246.8c-4.3,1.2-5.6,0.6-6.4-2.4c1.3-1,1.5,0.7,2.7,1.1c0.4,0,1.2,0,1.9,0c1.3-0.6,1.6-1.4,1.1-3.4
	c-2.3,0.2-4.7,0.5-5.8-2.5c0-0.5,0-1.2,0-2c0.1-2.1,1.4-3.5,3.4-3.7c2.1-0.3,3.9,0.7,4.1,2.8c0.3,2.6,0.2,5.3,0,7.9
	C-197.1,245.4-197.8,246.2-198.1,246.8z M-198.8,236.4c-1.8-1.1-2.8-1-3.7,0.1c-1,1.2-0.8,2.5,0.8,4c0.8-0.1,1.8-0.1,2.5-0.1
	C-198.1,238.8-198.1,237.6-198.8,236.4z"/>
<path class="st0" d="M-187.6,233.9c3.8-0.1,4.8,1,5.6,4.3c0.5,2,0.2,3.8-0.2,5.8c-0.4,1.9-1.8,3.1-3.7,3.4c-1.7,0.2-3.2-0.6-4.1-2.4
	C-191.8,241.7-190.7,236.1-187.6,233.9z M-187.2,245.5c1.2,0.2,2.1,0.1,2.8-0.7c1.2-1.5,1.2-6.9-0.1-8.3c-0.4-0.4-1-0.6-1.7-1.1
	c-0.7,0.5-1.6,0.9-2,1.5C-189.8,238.9-189.2,243.4-187.2,245.5z"/>
<path class="st0" d="M-211.7,247.3c-0.8-0.1-1.2-0.1-1.9-0.1c0-3.4,0-6.6,0-9.7c-0.8-0.5-1.9,0.6-2.1-1.2c0.9-0.6,1.9-1.5,3.1-2.5
	c0.4,0.6,0.9,1.1,0.9,1.4C-211.7,239.2-211.7,243.2-211.7,247.3z"/>
<path class="st0" d="M-174,237c-0.9,0.2-1.4,0.3-1.9,0.5c-0.2-0.3-0.4-0.5-0.9-1c1.1-0.9,2.3-1.7,3.5-2.7c0.3,0.5,0.7,0.9,0.7,1.3
	c0.1,4,0,8,0,12c-0.5,0.1-0.9,0.1-1.4,0.2C-174,243.9-174,240.7-174,237z"/>
</svg>
