<?xml version="1.0" encoding="utf-8"?>
<!-- Generator: Adobe Illustrator 19.0.0, SVG Export Plug-In . SVG Version: 6.00 Build 0)  -->
<svg version="1.1" id="Layer_1" xmlns="http://www.w3.org/2000/svg" xmlns:xlink="http://www.w3.org/1999/xlink" x="0px" y="0px"
	 viewBox="-329 131 300 300" style="enable-background:new -329 131 300 300;" xml:space="preserve">
<style type="text/css">
	.st0{fill:#F9AD51;}
</style>
<path class="st0" d="M-123.3,276.6c3,0.8,6.2-0.1,8.4-2.2l26-26c2.2-2.2,3-5.4,2.2-8.4l-4.2-15.6c-0.8-3-3.1-5.3-6.1-6.1
	c-3-0.8-6.2,0-8.4,2.2l-16.2,16.2l-10.1-2.9l-2.9-10.1l16.2-16.2c2.2-2.2,3.1-5.3,2.2-8.4s-3.1-5.3-6.1-6.1l-15.6-4.2
	c-3-0.8-6.2,0.1-8.4,2.2l-26,26c-2.2,2.2-3,5.4-2.2,8.4l4.3,16.2l-12.8,12.8l-46-45.7c-0.9-0.9-2.1-1.6-3.4-2l-26.6-8.4
	c-3.3-1-7-0.1-9.6,2.5c-2.6,2.6-3.5,6.2-2.5,9.5l8.4,26.4c0.4,1.3,1.1,2.5,2.1,3.4l46,45.7l-54.6,54.6c-3.4,3.4-3.4,8.9,0,12.2
	l18.2,18.2c1.7,1.7,3.9,2.5,6.1,2.5s4.4-0.8,6.1-2.5l54.7-54.7l55.1,54.8c1.6,1.6,3.8,2.4,6.1,2.4c2.4,0,5-1,6.9-2.9l18.2-18.1
	c1.9-1.9,2.9-4.4,2.9-6.9c0-2.3-0.9-4.5-2.5-6.1l-55.2-54.8l12.6-12.6L-123.3,276.6z M-229,222.7l109.4,108.7l-17.4,17.3L-246.5,240
	L-229,222.7z M-261.2,208.1l24.8,7.8l-17,16.8L-261.2,208.1z M-244.7,362.9l-16.3-16.3l53.6-53.6l16.3,16.2L-244.7,362.9z
	 M-122.6,363.1l-7.4-7.4l17.4-17.3l7.4,7.4L-122.6,363.1z M-146.4,264.5l-13.1,13.1l-16.3-16.2l13.3-13.3c2.2-2.2,3-5.4,2.2-8.4
	l-4.3-16.2l24.9-24.9l12.7,3.4l-15.1,15.1c-2.2,2.2-3.1,5.5-2.2,8.5l3.3,11.5c0.8,2.9,3,5.1,5.9,5.9l11.5,3.3c3,0.9,6.3,0,8.5-2.2
	l15.1-15.1l3.4,12.7l-24.9,24.9l-16.5-4.4C-141,261.5-144.2,262.4-146.4,264.5z"/>
</svg>
