<?xml version="1.0" encoding="utf-8"?>
<!-- Generator: Adobe Illustrator 19.0.0, SVG Export Plug-In . SVG Version: 6.00 Build 0)  -->
<svg version="1.1" id="Layer_1" xmlns="http://www.w3.org/2000/svg" xmlns:xlink="http://www.w3.org/1999/xlink" x="0px" y="0px"
	 viewBox="-329 131 300 300" style="enable-background:new -329 131 300 300;" xml:space="preserve">
<style type="text/css">
	.st0{fill:#F9AD51;}
</style>
<path class="st0" d="M-179,176.5c-57.7,0-104.5,46.8-104.5,104.5s46.8,104.5,104.5,104.5c57.7,0,104.5-46.8,104.5-104.5
	S-121.3,176.5-179,176.5z M-84.6,276h-74.3c-1-3.8-3-7.2-5.7-9.9l37.1-64.3C-102.9,217.8-86.3,245-84.6,276z M-179,186.5
	c15.4,0,30,3.7,42.8,10.3l-37.1,64.3c-1.8-0.5-3.7-0.8-5.7-0.8s-3.9,0.3-5.7,0.8l-37.1-64.3C-209,190.2-194.4,186.5-179,186.5z
	 M-178.6,291.7c-0.1,0-0.3,0-0.4,0s-0.3,0-0.4,0l0,0c-5.7-0.2-10.3-4.9-10.3-10.7c0-2.1,0.6-4,1.6-5.7c0,0,0,0,0,0l0,0
	c1.9-3,5.2-5,9.1-5s7.2,2,9.1,5l0,0c0,0,0,0,0,0c1,1.6,1.6,3.6,1.6,5.7C-168.3,286.8-172.9,291.5-178.6,291.7L-178.6,291.7z
	 M-230.5,201.8l37.1,64.3c-2.7,2.7-4.7,6.1-5.7,9.9h-74.3C-271.7,245-255.1,217.8-230.5,201.8z M-273.4,286h74.3
	c1,3.8,3,7.2,5.7,9.9l-37.1,64.3C-255.1,344.2-271.7,317-273.4,286z M-179,375.5c-15.4,0-30-3.7-42.8-10.3l37.1-64.3
	c1.8,0.5,3.7,0.8,5.7,0.8s3.9-0.3,5.7-0.8l37.1,64.3C-149,371.8-163.6,375.5-179,375.5z M-127.5,360.2l-37.1-64.3
	c2.7-2.7,4.7-6.1,5.7-9.9h74.3C-86.3,317-102.9,344.2-127.5,360.2z"/>
</svg>
