<?xml version="1.0" encoding="utf-8"?>
<!-- Generator: Adobe Illustrator 19.0.0, SVG Export Plug-In . SVG Version: 6.00 Build 0)  -->
<svg version="1.1" id="Layer_1" xmlns="http://www.w3.org/2000/svg" xmlns:xlink="http://www.w3.org/1999/xlink" x="0px" y="0px"
	 viewBox="0 0 103.8 103.8" style="enable-background:new 0 0 103.8 103.8;" xml:space="preserve">
<style type="text/css">
	.st0{fill:url(#XMLID_84_);}
	.st1{fill:url(#XMLID_85_);}
	.st2{fill:url(#SVGID_1_);}
	.st3{fill:url(#SVGID_2_);}
</style>
<g id="XMLID_40_">
	<linearGradient id="XMLID_84_" gradientUnits="userSpaceOnUse" x1="60.8524" y1="66.0866" x2="-10.1715" y2="-25.1341">
		<stop  offset="0" style="stop-color:#F75F1E"/>
		<stop  offset="0.2858" style="stop-color:#F75D21"/>
		<stop  offset="0.497" style="stop-color:#F8562A"/>
		<stop  offset="0.6841" style="stop-color:#FA4B3A"/>
		<stop  offset="0.8562" style="stop-color:#FC3C51"/>
		<stop  offset="1" style="stop-color:#FF2A6A"/>
	</linearGradient>
	<path id="XMLID_58_" class="st0" d="M60.2,16.8L60.2,16.8C66.6,20.3,71,27.2,71,35c0,11.4-9.3,20.7-20.7,20.7
		c-11.4,0-20.7-9.3-20.7-20.7c0-9.2,3.9-17.6,10.1-23.5c5.8-5.5,13.7-9,22.4-9c4.1,0,8.1,0.8,11.7,2.2C67.1,1.7,59.7,0,51.9,0
		C23.9,0,1.1,22.1,0,49.8c0,0.3,0,0.5,0,0.8c0,0.4,0,0.8,0,1.3s0,0.9,0,1.3c0,0.3,0,0.5,0,0.8c1.1,21.3,18.7,38.3,40.3,38.3
		c18.6,0,34.3-12.6,38.9-29.7c0.9-3.4,1.4-6.9,1.4-10.6C80.7,36.8,72.4,23.7,60.2,16.8z"/>
	<linearGradient id="XMLID_85_" gradientUnits="userSpaceOnUse" x1="27.5463" y1="25.8671" x2="98.1965" y2="101.3936">
		<stop  offset="0" style="stop-color:#FFDA6A"/>
		<stop  offset="1" style="stop-color:#F76F1E"/>
	</linearGradient>
	<path id="XMLID_56_" class="st1" d="M39.6,11.6C33.4,17.5,29.6,25.8,29.6,35c0,0,0,0,0,0c0,11.4,9.3,20.7,20.7,20.7
		C61.7,55.7,71,46.5,71,35c0-7.9-4.4-14.7-10.8-18.2c-0.7-0.4-1.5-0.8-2.3-1.1c0.8,0.3,1.5,0.7,2.3,1.1l0,0c-1.5-0.8-3-1.6-4.6-2.2
		c1.6,0.6,3.1,1.4,4.6,2.2c12.2,6.9,20.5,20,20.5,35.1c0,3.7-0.5,7.2-1.4,10.6c-4.7,17.1-20.3,29.7-38.9,29.7
		C18.8,92.2,1.1,75.3,0,54c1.1,27.7,23.9,49.8,51.9,49.8c28.7,0,51.9-23.2,51.9-51.9c0-16.9-8.1-31.9-20.6-41.4c0,0,0,0,0,0
		c-2.9-2.2-6.1-4.1-9.5-5.7C70.1,3.4,66.1,2.6,62,2.6C53.3,2.6,45.5,6,39.6,11.6"/>
</g>
<linearGradient id="SVGID_1_" gradientUnits="userSpaceOnUse" x1="3.3662" y1="20.2165" x2="-1.1354" y2="61.0242">
	<stop  offset="0" style="stop-color:#FFDA6A"/>
	<stop  offset="1" style="stop-color:#F76F1E"/>
</linearGradient>
<path class="st2" d="M0,50c0,0.4,0,0.8,0,1.3C0,50.8,0,50.4,0,50z"/>
<linearGradient id="SVGID_2_" gradientUnits="userSpaceOnUse" x1="3.5046" y1="20.2317" x2="-0.997" y2="61.0394">
	<stop  offset="0" style="stop-color:#FFDA6A"/>
	<stop  offset="1" style="stop-color:#F76F1E"/>
</linearGradient>
<path class="st3" d="M0,51.3c0,0.4,0,0.8,0,1.3C0,52.1,0,51.7,0,51.3z"/>
</svg>
